<svg width="41" height="39" viewBox="0 0 41 39" fill="none" xmlns="http://www.w3.org/2000/svg">
<mask id="mask0_3629_67" style="mask-type:alpha" maskUnits="userSpaceOnUse" x="2" y="0" width="36" height="36">
<path d="M17.0824 33.5846L23.9537 5.90049L19.3853 5.46442L18.5737 8.7342L16.2016 12.5395L4.86943 23.0903C1.9588 26.0901 1.41329 29.2796 5.22974 30.5638C5.22974 30.5638 8.55389 31.6496 11.6843 32.3262C12.5511 32.5304 16.2539 33.4056 17.0824 33.5846Z" fill="#C4C4C4"/>
<path d="M17.0825 33.5847L23.9538 5.90059L28.2594 7.38231L27.4478 10.6521L27.7846 15.0428L32.9861 29.1667C34.1856 33.0549 33.173 36.1434 29.143 35.7318C29.143 35.7318 25.6481 35.344 22.52 34.668C21.6458 34.496 17.9103 33.7636 17.0825 33.5847Z" fill="#C4C4C4"/>
</mask>
<g mask="url(#mask0_3629_67)">
<rect x="-0.722473" y="23.7798" width="36.5896" height="14.3064" fill="#EF4824"/>
<path d="M23.7717 17.1902C19.0463 17.1902 15.318 29.2422 9.85554 29.2422H4.133C3.09253 29.2422 2.4856 28.6786 2.4856 28.6786L-0.0722046 33.1006L32.7457 36.959V22.5659L29.2342 18.4041C29.2342 18.4041 28.8669 17.1902 27.37 17.1902H23.7717Z" fill="#478AEF"/>
<mask id="mask1_3629_67" style="mask-type:alpha" maskUnits="userSpaceOnUse" x="-1" y="17" width="34" height="20">
<path d="M23.7717 17.1902C19.0463 17.1902 15.318 29.2422 9.85554 29.2422H4.133C3.09253 29.2422 2.4856 28.6786 2.4856 28.6786L-0.0722046 33.1006L32.7457 36.959V22.5659L29.2342 18.4041C29.2342 18.4041 28.8669 17.1902 27.37 17.1902H23.7717Z" fill="#9E4F35"/>
</mask>
<g mask="url(#mask1_3629_67)">
<rect x="-1.76294" y="9.47339" width="36.5896" height="14.3064" fill="#2DFFD9"/>
</g>
</g>
<path d="M17.3514 3.98433L18.6597 4.26695L17.697 8.14716C17.4482 9.14992 16.4095 11.0867 15.8043 11.6887C11.0826 16.3862 4.93372 21.7067 3.81637 22.8334C0.740052 25.9354 0.51273 29.8079 4.23152 31.4669C6.62719 32.5357 11.3929 33.5653 16.9973 34.776" stroke="white" stroke-width="2.16763" stroke-linejoin="round"/>
<ellipse cx="1.19502" cy="1.12299" rx="1.19502" ry="1.12299" transform="matrix(0.977451 0.211162 -0.240812 0.970572 16.4095 2.63245)" fill="white"/>
<path d="M31.0534 6.9444L29.7533 6.66355L28.7906 10.5438C28.5418 11.5465 28.5593 13.7114 28.8166 14.4998C30.8242 20.6511 33.8128 27.9455 34.2808 29.4147C35.5694 33.4597 33.9541 37.0324 29.8569 37.0029C27.2175 36.9839 22.4817 35.9608 16.9126 34.7577" stroke="white" stroke-width="2.16763" stroke-linejoin="round"/>
<ellipse cx="1.18751" cy="1.12299" rx="1.18751" ry="1.12299" transform="matrix(-0.977451 -0.211162 -0.240812 0.970572 32.5285 6.11475)" fill="white"/>
<circle cx="20.6937" cy="9.30002" r="1.7341" fill="white"/>
<circle cx="21.9075" cy="14.3289" r="1.38728" fill="white"/>
<circle cx="23.555" cy="4.53121" r="1.99422" fill="white"/>
</svg>
